/* XPM */
static char *_d332f996e5742f9b80b5a066e789fceHC657HP0Iuh1lUsI[] = {
/* columns rows colors chars-per-pixel */
"128 128 9 1 ",
"  c black",
". c #010000",
"X c #000100",
"o c #010100",
"O c #020100",
"+ c #030100",
"@ c #010200",
"# c #020200",
"$ c #030200",
/* pixels */
"         @                      $   $  $ $$  @ $                 @      @ @ @    @   @@  $  @     $      $  $$ $  $ @ $$   $ $ $",
"        @                         $    $@    @@                   @   @  @        @ @   @        $ @ @ @ @ $$  $$ $$ $  @ @ @  $",
"                                    @ @  $$     $   $   @       @  @@   @ @        @  $$ $ $        $ @ $  $$$   $$ @ @  $ $$  @",
"                                     @ $  @    @   $  $           @   @@ @ @ @       @  @ @ @      @ @ $ @ $ $$ $$$  $ $@ @  $$ ",
"                                                      $          @ $ @  @ @          @     @        @ $   $ $ $$$ $  $@ $ $ $$  ",
"          @    @ @@                      @              @              @   @       @@ @ @    @  @    $$$$       $  $   $  $$ $$$",
"                @ @  @ @                 @       @                    @  @@  @@    $ @$  @   @     $ $$ $  $$  $  $ $ $  $ $$  $",
"        @ @ @ @  @ @@ @                    @                                @ @ @   @   @ @ @ @     $  $$ $$$       $  @  $$ $$ ",
"        @@ @@ $ @ @  $@    @                          @ @                   @ @    @ @ @     $ $      @$$$          @  @ $$$  $ ",
"          @  $ @ @ @@  @       @@  @                   $ $@              @ @ @ @@   @ $ $              $ $$      @    @      $$@",
"           @@ @ @    $  @        @$                  @ @ $ @         @ @     @@ @    @ @ @             @ $  @     @$ $ $  $  $$ ",
"          @  $ $ @     $ @     @@                    @  @ @ $ @                @ @             $@       $  $ $ @ @   $@ @  @  $$",
"          @  @@ @@ @ @   @     @ $ $ $         @ @ @     $  @ $                 @ @@                        $ @  @ @ @  @ $    $",
" @@        $$  $  $ $ $ @ @@ @@  @@ @           @ @ @  @ $$@ $ @ @                                       $$ $$ $@ @ $ $$$$   $ $",
"   @             @ @ @ @ $@ @        @      @     $@ @   @  @ $  @                      @                 $$  $  @ @@ @    $$  $",
"               @$ @   $ @  @ @   @ $         @ @@   @  @@  @ $ $@ @  $                               @   @   @ @@    @ $ @    $ ",
"                 @ $@ @ @   $ $   @          @  @ @         @  $$  $ $ @                                   @$  @     $$    @   @",
" @              @ @  $ @ @$  @@      @@        $ $ @$$   @   $ $$$@ @ $  @                   @@ @  $         @  @  @ $    @     ",
"@               @  $@ $ @    @ @      @      $  $ $     @  $     $ $   @@                @   $ $ $  @       @  $$       $      $",
"                     @   @@   @             @ @  @ @ $$  $ $ $$  $  @$$  @         @@  @$ @ @ @ @ @ $        $@  @ $@ $@   @    ",
"                    @ $ $ @ @ @  @          @  @ $ @ $  @     $ $  $$$$  $ @             $ $@ $  $ @$  @      @@@  @ @@  @ $    ",
"                     @ $$$ $ @ @@  @@@         @$ @  $$$$$ $$ $  $$$$  $$ @ @     @@ $ @@ @  $  @     $ @ @      @      @    $@ ",
"                 @  @  $ $$ $ @ @  @         @  @  $$ $$$ @ $$ $ $$  $$$$  $ $   @$ @ $  $ @$  $ $$$ $ @ @ $$     @@         @  ",
" @                @  $$    @ @ $ @                $   $  $$$ $   $      $ @ @  @@  @ $ @@ $ $  $@   @ $ $ @   $     @      @    ",
"@    $ @         @    @ $   $ $  @                 $     @   $     $    @ @ $ @    $$  $  $ $    $  $$ @ @ @ $@ @     @         ",
"    @ @ @     @   $    $ @$  @@ @ @                @$$ $ $$$ $           $ $ @  @  $$ @$$ $   $ @ $   @ $ $ $                @$ ",
"@  @ $ $$ @       @ @      @ @ @ @@                 @ $  $$@ $     $ @@  @@ @      $$  $$$ @$$$  @ $$    @$     $ $        @ @ @",
" @@ @ @  @ $@ @      @@  $$ @ @                      $ @ $          @   @ $         $ @   $   $$$ $$$@ $ @ @@  @ @ @     @@ @ $ ",
"   $$ $$$    $$ $              @                        $  @                        @      $ $$ $$$$$  $ $  $  @@ $ @    @   $$$",
"$$ $$ $ $$$    $  $      $                                $               @ $        @@  $$   $      $$@@  $ $$  @ @      @ @ $ ",
"  $   $   $ $  $               @@ @ @                       @ @     @      @ $     @@  @@@ $  $$   $ $ $ $ @ @ @ @$ $    @      ",
" $  $$$     @  $$@ $          @  @ @ @@                        @       @  $ @ @   @         $  $$$$$ $ $@ $ $ $ @  $ @       $  ",
"      $@ @   @    $$         @  @$  $ @    @                     @   @   @   $    $     $        $$ $ $ $ $$   $    $        @ @",
" @ @    $  @  @  $  @          @   $ @ @$    @ @ $             @@   @ $ $ $@         $$  @          $$$$$    $ $ $   @   @      ",
"@ @         @  @   $ $            @ $ @  $ $$ @ @  $               $ @$  @@ $ @     $  $           $$$  $$$ @   $  @$           ",
" @ @@$$ $$          @         @@ $   $ $@ @  @ $ $  @       @ @@ @@ $  @@           $ $  @$ @         $   $$ $$   $  @  @      @",
"@  $ $$  $ $@     $ @            $ @ $@ $  $$$$  @              @@ $@ $               @@ $    @  @   $   $   $ $ $ $ @@  $   @  ",
" @ $@  @  @      @ @$@            $ @  $  $$$ $ $ $@$$  @         @  $                  @  @@  @       $$$$ @ @           @ $   ",
"  $   $ $@ @ @  @ $   @           @   $    $$$$    $ @ $ $         @@                   $ @  @ @ @     @   @ $ @$$    @   $ @ $@",
"   @@  @  @ $ @   @$ @ @@      @@  @$  @   $  $$$$@ $  $@             @$  $ @ $ $ @        @$     $   $ $ $  $$    $ $ @ @ $  @ ",
"  $   @    $ $ @  @ $ $ @            $@     $$ $$$ $    $ @      @    @  @ @ $ @ @ @        @   @ @ $ @ $   $$   $     @@ @ @  @",
"   @@$   @@   $ $  @   @ @ @@   $@ @   $   @$  $ $ $$$$  @ $    @ @ $  $$ $ @ $ @  $$      @     $$$ @ @ $ $   @@ $  $$  @ @ $$ ",
"     @ @@$    $ $   @ @ @ @          $@ $      $$$$ $$  @ @      @ @ $   @@  @ @ @  @ @    @@ @ @   $  $$ $  $ @ $ @$        $$ ",
"    $         @   $$ $ $ @ @ @   @@ @  $$  @$     $$ $$$ $ @    $ $  @ $$  @$ $ $ $  $ @@    @ $ $ @ @ $$$$  $$@  @           $ ",
"      $$ $$       $  @ @@@ @@   @ @  @   $      @ @$$$$$@ @     $ $ $ $ @ @  @ @ @ @$ @ @    $  $ @ $ @    @@ $ $             @ ",
"@    $  @             @        @ @@    $     @     $     $ @ @       @ @   @$ $ $ $  @ $ $ $   $@    @ $ $$  $ @               @",
" @@      $ $ @$           @     @     @       $ @$ $$$$$@ $        $@ $$ $$@ @ $ $ @ $@ @ @        @@ $  @ @ @                  ",
"        @  $                     $ @     @  @@ @ $     $ $ @$        $  $$  $ @ @ $ @  $ $ @@$         @$ $ $                   ",
"        @ @ @                    $ $ $ @@           @ @ $ @ @ @     @ $$    $ $ $  @ $@ $ $ $$$           $     @ @        $    ",
"           @                       $@ $  @       @   $ $ @ $ $    @  $ $$$$  $$@  $ @  $ @ @ $ $ @               $ @@     @  $  ",
"                                 $   $ @@ @       $   @    @@ @       $  $   $   $ $$$    $$  $$$            @ $@ $ $ $ @  $ $ $",
"@                               @   @  $             @ $$ @         $ $  $$$  $$ @     $$$  $  $ $$    @  $  $ $ $ @ @ @ $@ @   ",
"                                 @@  @ @            @  @ $          @ @$$ $$$ $$@ @  @ $$ @ $ $ @ @ @   @ $ $ @ $ $ @ $  $      ",
"@ @              @ @ @   @ @ @  @  @$ @  @@ @                        $ $$$  $ $   $$  $ $  $ @   $ $  @  @ @ @ $$$ @ $ @$$$ $ @ ",
" @ @@            @@ @ $ $ $ @  @ @  $     @   @ @      @@    @        @$ $$$$ $ $$$ $$    $ $ $$@ @  $ $$@$    $ $  @ @  $$$ @ @",
"@ @          @  @  $ $ @ @ @ @$ @        @   @ @  @   $  @ @               $$ $  @ @  $$$  @ @$ $$ $@ @   @  $   $ $ $ $$  $$ $ ",
" $ @ $       $   @ $ @  $ $ @      $      @       @   @ @ @             $  $$$   $   $$  $   $ $$ $ @    @     $$ @ @  $$   $ $ ",
"@ @  $@      @@ @ @ $ $  @ @  @$$$$      @@    @@  @   @ @@  $$        @$  $  $$ $@$$  $$$$$   @$   $   $  $ $@  @ $ $    $     ",
" $ $@ @       @  $ $ @ @  $  $ $$$ @ @     @   @    @    $ $@            $   $ $   $$@ $  $ $    $ $ @@  @   $ $@ @ @$$    @ @ @",
"  @  @         @   $$ @  $$  @    $ $                     @                     $  $  $  $$ $@ @   $@  $@  @  @ $$ $   @ $$ $ @ ",
"$  $ @$   @   @ $  $ @ @$  @  $   $  $ @@                @ $  @           @       @  @      $ $  $$$    @ @    $$ $$ $   $ $$ @ ",
"  @ $  @     @  $ $      @$ @    $   @$ @            @@    $ $ $              @    @$ $$$  $  $ @        @ @$    $$ $$ $       $",
"$$ $  @      @    $ @    @     @$$ $@  $ @            @   $ @                        @   $   $ $ $        @      $ $$   $   $ @ ",
"  @ @       @  @ @ $ @ @@  $$     @  $@ @            @ @@ $$$$$  @           $ @@   $ $   $$ $@             @         $$ $$$ @ $",
"@ @    $     $$$$$ $ @ @ $  $$ $ $ $ $@@@ @            $ $$$$$$ $ @  $              @  $$$   $$ $          @ @ @ $$$$ $   $   $ ",
" @ @           $  @ $ $ @  $   $$$@     @$ @@      @    $     $  @@  @                     $$   $ $ @     @ @  $    $    $  $ $ ",
" $$ $  @      @  @ @ @ @ @    @   $ $           @     $ $  $ $$$$$ $$ $                     $ $  $            @@    $ $  $  $   ",
"   @ @$ @      @  @   @ $ @ $  $$   $    $@ @     @    @   $   $  @  @ @$                      @   $$                $$ $$$$ @  ",
"$@ @ @ @  @      @ @  @   @   $    $ $ $ $ @@     @ @ @ @ @  @ $$  @ $$ $ $            @      $  $              $ @ @ $$$ $$$$  ",
"  $ @    @ @@   @ @  @ @@  @$       @ @ @ $      @ @ @ $ $ @   $$ $      @  $                                         $    @    ",
"    @      @$ @  @  @      @ @ $$ $  $ @ @ @ $    @    $$ @  $ $ @ @ @ @@   @                                         @@$ @     ",
"             @ @  @   @     @ $   $ @ $ $ $ @ $     $    @ $    $ $ $ @  @$                          @ @@                       ",
"      @       $ @        @ $ @$ @     @   @ @ @   @ @$    @    @    $   $ @ @ @               $$$ $  @   @    @$                ",
"@ $    $@        @@      @@ @   $$$ $  @@  $ $        @  $ $@    $$$  $$ @ $ @ $@                @$ $ $ @ $  @  @          $    ",
" $     $ $ $$     @        $   $$$    @  $  @          $   $  @ $$     $$ $ $ @  @             $$  @ @  $  @$    @          @   ",
"@  $$$  @ @  @     @ @   @ $$$$$ $$$$$ @@ $$ $        @ $ @ @ $$ $$$ $   @ @ @ $@ @@     $   $ $  $ @ $$  $  @    @     $ $  @  ",
"$   $  $$  @$@ @@  @@     $  $$$$  $$$   @            @ $    @ $$$$ $  $$ $ @ @  @     $      $  $$ @    $ $ @ $@ $           @ ",
"  $$ $@   $ $ $@           @  $ $$$$$  $$            @ @    @   $ $$ $$$$$$  $ $$ $            @   @ $$$ $@ $  $$              @",
"$   $$$$ $    $ $$$ @      $$ $   $  $$  @@           @ $      $     $ $ $ $$ $$$  $          $   @ $$$  $ $$ $ $$@  @          ",
"$ $   $ $$$$   @   @               $ $                 @ $   $   $$  $$$ $ $$ $ $ @ @ @ @    @   $ $ @  @ @  $$   $$$ @ $       ",
" $  $ $$$ $   @ $    $                @                 @ @     $$$ @ @$ $ $  $  $$ @ @  @   @ $ $$ $ $   @    $$$$$ $  @     @ ",
"$  @ $  $    $ $   $    @                                @$          $  $$ $       @ $ $@    $ $$  $$ $ $$ @$$ $    $  $ $$    $",
"$ $  $@  $$$$ $$ $$$$$ $@               @ @    @ @      @  @      $$$@$ $  $$ @ $$    @ $      @  @$  $$ $$  $$ $ $$$  $@ @   @ ",
" $$ $  @  $  $$  $     $ @            $$ $ $@   @           $$     @  $ $ @  $$$   @   @     $$ $   $ $       $    $$$   $   @ $",
"  $   @    $$$$$$  $$ $ $ @        $ @    $   $  $ $$       @ @       @$     $$ $      @ @ @ @  $ @    @ $       $  $ $ @  @$ @ ",
"  $    @  $   $  $$$$ $@ @ @     $ $$ @ $ $ $  @@            $ @  $  $  $               $ $   $$   $$$$ @  $      $ $$   $   @ $",
"   @$$    $    $$$ $ $$ $ $ @    @   $    $$$ $  $ $    @   @ $ $ @   $      $ $ $@      @ @ @   @$$ @$  $@  $  $ $    $$    @$$",
"$ $    $    $$    $$ $ @ @ @ $  @ @ @  $    $$$$ $   $   $             @  $ @   @  @     @   $$@    $  @  $$ $          $ @     ",
"$   @ $    $   $$ @ @ $  @ @@ @  @ @ $ $    $ $$$   $ $ $@ @@     @     @$         @       @     $$$   $@ $$ $ $   $@    $ $  $ ",
"  $@ $   $@  $@    $ $ @$ $  @    $ $ @ $  $$$  $ $$$$$$$ $                @        @       @      $$$   $$  $$$@$   $    @  @$ ",
"@ @ $  $@  @$    @$@@ @    $$  @   $ @ @     $$ $$$  $$    @ $@                                      $$ $  @    $ @             ",
"$   $$$  $@   $ $      @ $@ @  $$ @ $ $       $  $$  $  $ $ @  $                   @  $              $ @ @   $$ $    @          ",
"  @ $$$ @     $ @ $   @ @@ $     $   $  $   $ $   $$ @   @ $@ $ $          $  @  @ @ @$ $                 @ @  $    @           ",
"     @ $   @ @ @    @$    @    @@      $  $  $$ $   $ $$@      @ @       $ $ $ $@      @ @ @             @ @ $ $$$ $            ",
" @$ @ $       @  @ $  $ $  $$    @       $ $  $$$ $ $  @ $ $@$$ @       $$$ @ @  @ @$$  $ $ $ @           @ @ $   @             ",
"@ @  @ @ $ @ @ @@ @    @ @      @     $$   $$$$ $ $$$ $ @ @  $         @  $  $ @$ $    $ @ @ @ @           @ $  $$              ",
"@   $  $ @$$ $@ $     $ $               $ $  $  $$ @ $   $  $  $ @@     $    $$ $$$    $$$ $ $$                  $         @  $ ",
"        @   @  @                  @    @ @ $$$ $  $ $$$$ $$ $  $@        $ $     @     $  @ @  @ @ $                  @  @$  $$@",
"$          @  @                    $@   @  $ @ $$$$@ $$  $$$  $          @  $  $  $ @ $  $$  @$ $ $ $            $$ $    @ @ $$ ",
"$$$          $ @ @                             @      $$    $      @      @ $ @  $$@   @@ @ $    @ @$          @  $  $ $$      $",
"$ @              @ @     @ @   @    @  $   @     @ @$    $     $@ @      $  @ $$$ $ $ @ $$ $$ @$@    $ @$    $ @  $$    $ $ $$  ",
" @ @ @@         @ @ $ $ $ @ @    @           $           $ $$$   $ @   @@  @ $  $  @   @ $ $      $$  $    @  @   @ $$$   $   $ ",
"@   @  @           $       @ $$ $                    @       @$  @@      @$ @ $  $$ @  $$ $  $$ $    $$  @    @   @  $ $$$$$$  $",
" @   @      $ $ $$$ $$@$$$$ @ @  @ $           @    $ $   $ $     @     @ $   $ $$ @$     $$$$ @ $ $ $$ $ @@ @ @   $  $     $$$ ",
"     @         @  $ $$ $$   $$  @ @$           @@     @@ @ @  $$$ @      @ @ @$$   $   @ @$$$ $ $$ $$$ $  $  @       $$  $$$ $  ",
"  @  @@ @       $$$$ @ $$$$$   $     $ $              @ @    @  $  @      @ @  @ $ $$$$ @   $  $     $ $ @ @$  @     $   $ $ $$$",
"   @@  @ $ @ @@  $$   @  $$ $  $ $$   $ @ $                                   @ @   $  @      $ $ $ @ @  $$  @            $$ $$ ",
"  @   @ @   @              $$ $ @   $$$  $         @           @  @      @     $$$$$ $       @@   $  $ $   @@ $@    $ $   $ $ $$",
" @@    @           @      @   $    $ $ $@ $  $                     $@          $$$ $ $       @@ @   @ @     $ @ @    $          ",
"@  @ $           @$  $$ $$    $   @   @  $$$                  @  $   @     $$     $$$  @@               $        @ @ $ $   $ $ $",
"  $ @ @      @  @ $ @ $  $$ @      @$  $ @ $   @@      @ @  @ @   $ $ $$$         $ $$$  @@            $               $$   $  $",
"@  @ $            $  @ @   @      $ $  $$  $$$$  @    @ @  @ @ @ $$ $$$   $            @$   @ @ @                    $   $   $  ",
"@    @        $    @    @  @ @     @ @ $   $$$ $$  $  @ $  @ $ $  $$$ $$$$$            @ @ $ @ @@ @                    $   $$ $$",
"  @            @ $@         @  $      @ @$ $$    @  @$ $  $ @ @ $   $   $ $ $ $         @   $ $                  $   @@  @ $   $",
"  @              $$$$ @     $ @        @ $ $$ $   $  $@ @  @ $ @$ @  @ @$$$$$   $       @  @ @$                $@      $$ @$$  $",
"                    $$  @      @@ @@@$$ @ @  $ @$   @    $$ @  $$@ @@ $@   $$ $$ @        @    @  $   $   $  @    @      $ @    ",
"                     $ $ @@       @  @$$ @$  $$  $  @  $@$  $  $  @ $ @ $ $$   $$  @       @     $ @ $   @$$ $ $ @              ",
"@     @                                 $  $$   @      $ $$  @   @ $ $ $    $$ $ @$  @       $  @ $  $ $$ $  $$ $               ",
"  @  @@  @ @$              @       @ @ $  $  @ $ @   $@ @  @@     @ @ $    $ $ $$ $ @      @@$$$$  @   $$$$ $ $ $$  $ $         ",
"$@ @@   @ $  @            @ @@    @   @$    $ $ @         @  $ $$  @$  @ $   $   @ @ $    @ $  $$$$ $$ $  $$$ $$ $$  @$  $ $    ",
" @  $ $   @    $$          @  @   @@     @  $ @           @$ @@  @   $ $ $    $     $ $    $$$$$ $$ $  $@ $@ @ $$$$$  $ $$$ @  $",
"@ $    @$  $ $$$             @                              @  @@ $ @ @    $$ $ $ $ $                $$     @  $    $ $$$    $  ",
"    @ $ $$@ @ @  $ $ @                                           $ $$ $ $  $$$$ @ @ $$ $       $$$      @ @  @ $ $ $   @ $ $$ $ ",
"$    $ @ $ $$  $  @ @ @                                        @ $$$$    $$   $  $ @         $$$$ $      $ $$ @    $@ @    $  $ ",
"  @ $$   @  $$ $$ $ @ $ @                                        @ $$$    $  $ $ $             @$ @ $ @  @  @       @           ",
"$$     @@ @@     @ @ $ @                   @@  @ @ @            @ @  $$$$ $$@   @ @               $$ $$  $@          @ @@       ",
"  @ $ $ @      $$ @   @ $  $              $ $  @@ @  @@            @ @ $ @$                 @        $$$  $ @  $ @ @     @      ",
"   $  $@ $   $ @   $$$ $ @@  @ @ $ @  @    $ @   @  @ $             @ @   @ $@                   @$@ $  $   $@@ @@  $           "
};
